<svg width="40" height="48" viewBox="0 0 40 48" fill="none" xmlns="http://www.w3.org/2000/svg">
<path d="M0 4C0 1.79086 1.79086 0 4 0H28L40 12V44C40 46.2091 38.2091 48 36 48H4C1.79086 48 0 46.2091 0 44V4Z" fill="#E59E34"/>
<path fill-rule="evenodd" clip-rule="evenodd" d="M11.7647 0H9.41174V2.4H11.7647V4.8H9.41174V7.2H11.7647V9.6H9.41174V12H11.7647V14.4H9.41174V16.8H11.7647V14.4H14.1176V12H11.7647V9.6H14.1176V7.2H11.7647V4.8H14.1176V2.4H11.7647V0ZM9.41174 20.4C9.41174 19.7373 9.93847 19.2 10.5882 19.2H12.9412C13.5909 19.2 14.1176 19.7373 14.1176 20.4V27.6C14.1176 28.2627 13.5909 28.8 12.9412 28.8H10.5882C9.93847 28.8 9.41174 28.2627 9.41174 27.6V20.4ZM10.5882 27.6V24H12.9412V27.6H10.5882Z" fill="white"/>
<path opacity="0.5" d="M40 12L31 12C29.3431 12 28 10.6569 28 9V0L40 12Z" fill="white"/>
</svg>
