<svg width="40" height="48" viewBox="0 0 40 48" fill="none" xmlns="http://www.w3.org/2000/svg">
<path d="M0 4C0 1.79086 1.79086 0 4 0H28L40 12V44C40 46.2091 38.2091 48 36 48H4C1.79086 48 0 46.2091 0 44V4Z" fill="#0C864B"/>
<path d="M18.875 14.8125V14.25H17.75V14.8125H18.875ZM17.75 27.1875V27.75H18.875V27.1875H17.75ZM13.8125 18.75H13.25V19.875H13.8125V18.75ZM26.1875 19.875H26.75V18.75H26.1875V19.875ZM25.625 17.2125V24.7875H26.75V17.2125H25.625ZM23.7875 26.625H16.2125V27.75H23.7875V26.625ZM14.375 24.7875V17.2125H13.25V24.7875H14.375ZM16.2125 15.375H23.7875V14.25H16.2125V15.375ZM16.2125 26.625C15.7832 26.625 15.495 26.6246 15.2731 26.6064C15.0578 26.5889 14.9548 26.5574 14.8869 26.5229L14.3761 27.5252C14.6291 27.6541 14.8966 27.7044 15.1815 27.7277C15.4598 27.7505 15.8017 27.75 16.2125 27.75V26.625ZM13.25 24.7875C13.25 25.1983 13.2496 25.5401 13.2723 25.8185C13.2956 26.1035 13.3459 26.3709 13.4748 26.6239L14.4772 26.1131C14.4426 26.0452 14.4112 25.9422 14.3936 25.7269C14.3754 25.505 14.375 25.2168 14.375 24.7875H13.25ZM14.8869 26.5229C14.7105 26.4329 14.5671 26.2895 14.4772 26.1131L13.4748 26.6239C13.6725 27.0119 13.9881 27.3274 14.3761 27.5252L14.8869 26.5229ZM25.625 24.7875C25.625 25.2168 25.6246 25.505 25.6064 25.7269C25.5889 25.9422 25.5574 26.0452 25.5229 26.1131L26.5252 26.6239C26.6541 26.3709 26.7044 26.1035 26.7277 25.8185C26.7505 25.5401 26.75 25.1983 26.75 24.7875H25.625ZM23.7875 27.75C24.1983 27.75 24.5401 27.7505 24.8185 27.7277C25.1035 27.7044 25.3709 27.6541 25.6239 27.5252L25.1131 26.5229C25.0452 26.5574 24.9422 26.5889 24.7269 26.6064C24.505 26.6246 24.2168 26.625 23.7875 26.625V27.75ZM25.5229 26.1131C25.4329 26.2895 25.2895 26.4329 25.1131 26.5229L25.6239 27.5252C26.0119 27.3274 26.3274 27.0119 26.5252 26.6239L25.5229 26.1131ZM26.75 17.2125C26.75 16.8017 26.7505 16.4598 26.7277 16.1815C26.7044 15.8966 26.6541 15.6291 26.5252 15.3761L25.5229 15.8869C25.5574 15.9548 25.5889 16.0578 25.6064 16.2731C25.6246 16.495 25.625 16.7832 25.625 17.2125H26.75ZM23.7875 15.375C24.2168 15.375 24.505 15.3754 24.7269 15.3936C24.9422 15.4112 25.0452 15.4426 25.1131 15.4772L25.6239 14.4748C25.3709 14.3459 25.1035 14.2956 24.8185 14.2723C24.5401 14.2496 24.1983 14.25 23.7875 14.25V15.375ZM26.5252 15.3761C26.3274 14.9881 26.0119 14.6725 25.6239 14.4748L25.1131 15.4772C25.2895 15.5671 25.4329 15.7105 25.5229 15.8869L26.5252 15.3761ZM14.375 17.2125C14.375 16.7832 14.3754 16.495 14.3936 16.2731C14.4112 16.0578 14.4426 15.9548 14.4772 15.8869L13.4748 15.3761C13.3459 15.6291 13.2956 15.8966 13.2723 16.1815C13.2496 16.4598 13.25 16.8017 13.25 17.2125H14.375ZM16.2125 14.25C15.8017 14.25 15.4598 14.2496 15.1815 14.2723C14.8966 14.2956 14.6291 14.3459 14.3761 14.4748L14.8869 15.4772C14.9548 15.4426 15.0578 15.4112 15.2731 15.3936C15.495 15.3754 15.7832 15.375 16.2125 15.375V14.25ZM14.4772 15.8869C14.5671 15.7105 14.7105 15.5671 14.8869 15.4772L14.3761 14.4748C13.9881 14.6725 13.6725 14.9881 13.4748 15.3761L14.4772 15.8869ZM17.75 14.8125V19.3125H18.875V14.8125H17.75ZM17.75 19.3125V27.1875H18.875V19.3125H17.75ZM13.8125 19.875H18.3125V18.75H13.8125V19.875ZM18.3125 19.875H26.1875V18.75H18.3125V19.875Z" fill="white"/>
<path opacity="0.5" d="M40 12L31 12C29.3431 12 28 10.6569 28 9V0L40 12Z" fill="white"/>
</svg>
