<svg width="32" height="40" viewBox="0 0 32 40" fill="none" xmlns="http://www.w3.org/2000/svg">
<path d="M0 4C0 1.79086 1.79086 0 4 0H22.4L32 10V36C32 38.2091 30.2091 40 28 40H4C1.79086 40 0 38.2091 0 36V4Z" fill="#A847B7"/>
<path d="M9.83337 13.5001C9.83337 12.7637 10.4303 12.1667 11.1667 12.1667H16.8334C17.5698 12.1667 18.1667 12.7637 18.1667 13.5001V20.5001C18.1667 21.2365 17.5698 21.8334 16.8334 21.8334H11.1667C10.4303 21.8334 9.83337 21.2365 9.83337 20.5001V13.5001Z" stroke="white" stroke-width="1.2" stroke-linejoin="round"/>
<path d="M18.1667 15.6667L21.2019 14.1492C21.6452 13.9275 22.1667 14.2498 22.1667 14.7454V19.2547C22.1667 19.7503 21.6452 20.0726 21.2019 19.851L18.1667 18.3334V15.6667Z" stroke="white" stroke-width="1.2" stroke-linejoin="round"/>
<path opacity="0.5" d="M32 10H25.4C23.7431 10 22.4 8.65685 22.4 7V0L32 10Z" fill="white"/>
</svg>
