<svg width="40" height="48" viewBox="0 0 40 48" fill="none" xmlns="http://www.w3.org/2000/svg">
<path d="M0 4C0 1.79086 1.79086 0 4 0H28L40 12V44C40 46.2091 38.2091 48 36 48H4C1.79086 48 0 46.2091 0 44V4Z" fill="#2727B0"/>
<path d="M25.4359 15.564C26.827 16.9552 27.6875 18.877 27.6875 20.9999C27.6875 23.1227 26.827 25.0446 25.4359 26.4357M22.9168 18.0835C23.6633 18.83 24.125 19.8612 24.125 21.0003C24.125 22.1394 23.6633 23.1707 22.9168 23.9172M13.8125 17.8125H15.0162C15.3307 17.8125 15.6374 17.7136 15.8926 17.5298L19.5933 14.8653C19.8414 14.6867 20.1875 14.8639 20.1875 15.1696V26.8305C20.1875 27.1361 19.8414 27.3134 19.5933 27.1347L15.8926 24.4702C15.6374 24.2864 15.3307 24.1875 15.0162 24.1875H13.8125C12.9841 24.1875 12.3125 23.516 12.3125 22.6875V19.3125C12.3125 18.4841 12.9841 17.8125 13.8125 17.8125Z" stroke="white" stroke-width="1.5" stroke-linecap="round" stroke-linejoin="round"/>
<path opacity="0.5" d="M40 12L31 12C29.3431 12 28 10.6569 28 9V0L40 12Z" fill="white"/>
</svg>
