<svg width="40" height="48" viewBox="0 0 40 48" fill="none" xmlns="http://www.w3.org/2000/svg">
<path d="M0 4C0 1.79086 1.79086 0 4 0H28L40 12V44C40 46.2091 38.2091 48 36 48H4C1.79086 48 0 46.2091 0 44V4Z" fill="#A847B7"/>
<path d="M13.0625 17.0625C13.0625 16.2341 13.7341 15.5625 14.5625 15.5625H20.9375C21.7659 15.5625 22.4375 16.2341 22.4375 17.0625V24.9375C22.4375 25.7659 21.7659 26.4375 20.9375 26.4375H14.5625C13.7341 26.4375 13.0625 25.7659 13.0625 24.9375V17.0625Z" stroke="white" stroke-width="1.5" stroke-linejoin="round"/>
<path d="M22.4375 19.5L25.8521 17.7927C26.3508 17.5434 26.9375 17.906 26.9375 18.4635V23.5365C26.9375 24.094 26.3508 24.4566 25.8521 24.2073L22.4375 22.5V19.5Z" stroke="white" stroke-width="1.5" stroke-linejoin="round"/>
<path opacity="0.5" d="M40 12L31 12C29.3431 12 28 10.6569 28 9V0L40 12Z" fill="white"/>
</svg>
