<svg width="40" height="48" viewBox="0 0 40 48" fill="none" xmlns="http://www.w3.org/2000/svg">
<path d="M0 4C0 1.79086 1.79086 0 4 0H28L40 12V44C40 46.2091 38.2091 48 36 48H4C1.79086 48 0 46.2091 0 44V4Z" fill="#D14423"/>
<path opacity="0.5" d="M40 12L31 12C29.3431 12 28 10.6569 28 9V0L40 12Z" fill="white"/>
<path d="M14.5625 14.8125H25.4375M14.5625 26.4375C13.7341 26.4375 13.0625 25.7659 13.0625 24.9375V18.5625C13.0625 17.7341 13.7341 17.0625 14.5625 17.0625H25.4375C26.2659 17.0625 26.9375 17.7341 26.9375 18.5625V24.9375C26.9375 25.7659 26.2659 26.4375 25.4375 26.4375H14.5625Z" stroke="white" stroke-width="1.5" stroke-linecap="round" stroke-linejoin="round"/>
</svg>
