<svg width="19" height="24" viewBox="0 0 19 24" fill="none" xmlns="http://www.w3.org/2000/svg">
<path d="M0 2.4C0 1.07452 1.07452 0 2.4 0H13.3L19 6V21.6C19 22.9255 17.9255 24 16.6 24H2.4C1.07452 24 0 22.9255 0 21.6V2.4Z" fill="#E71A01"/>
<path opacity="0.5" d="M19 6L15.1 6C14.1059 6 13.3 5.19411 13.3 4.2V0L19 6Z" fill="white"/>
<g clip-path="url(#clip0_8305_395364)">
<path d="M15.315 14.65C14.96 14.2775 14.232 14.065 13.203 14.065C12.653 14.065 12.0145 14.118 11.3225 14.242C10.8985 13.8343 10.5125 13.389 10.169 12.9115C9.903 12.5565 9.672 12.1665 9.459 11.7935C9.8675 10.5515 10.0625 9.54003 10.0625 8.81253C10.0625 7.99653 9.761 7.14453 8.8915 7.14453C8.6255 7.14453 8.359 7.30453 8.217 7.53503C7.827 8.22703 8.0045 9.73503 8.6785 11.2255C8.42481 11.9877 8.14075 12.7395 7.827 13.479C7.543 14.1535 7.2235 14.8455 6.8685 15.484C4.917 16.265 3.657 17.17 3.515 17.879C3.462 18.1455 3.5505 18.394 3.746 18.589C3.817 18.6425 4.0655 18.8555 4.491 18.8555C5.786 18.8555 7.1525 16.7615 7.8445 15.502C8.377 15.3245 8.9095 15.147 9.4415 15.005C10.0028 14.8526 10.5713 14.7283 11.145 14.6325C12.511 15.8565 13.7175 16.052 14.321 16.052C15.066 16.052 15.3325 15.75 15.421 15.502C15.581 15.182 15.4745 14.8275 15.315 14.65ZM14.605 15.165C14.5515 15.431 14.285 15.6085 13.913 15.6085C13.8065 15.6085 13.718 15.5905 13.611 15.573C12.937 15.413 12.298 15.076 11.6595 14.5435C12.1518 14.4603 12.6502 14.4188 13.1495 14.4195C13.5225 14.4195 13.842 14.437 14.0545 14.4905C14.303 14.5435 14.6935 14.7035 14.6045 15.1645L14.605 15.165ZM10.843 14.331C10.3479 14.4238 9.85667 14.5362 9.3705 14.668C8.9465 14.7783 8.52627 14.9025 8.1105 15.0405C8.32663 14.6219 8.52792 14.1958 8.714 13.763C8.927 13.266 9.104 12.7515 9.282 12.2725C9.459 12.574 9.6545 12.876 9.8495 13.142C10.1683 13.5485 10.4997 13.945 10.843 14.331ZM8.519 7.73003C8.55036 7.66717 8.59837 7.61413 8.65778 7.57666C8.7172 7.53919 8.78576 7.51874 8.856 7.51753C9.2285 7.51753 9.2995 7.94303 9.2995 8.28053C9.2995 8.84803 9.122 9.71753 8.8205 10.711C8.3055 9.32703 8.2705 8.17403 8.519 7.73003ZM6.567 15.9985C5.662 17.489 4.7925 18.4115 4.2605 18.4115C4.16451 18.4121 4.07101 18.381 3.9945 18.323C3.888 18.2165 3.8345 18.0925 3.87 17.9505C3.9765 17.418 5.0055 16.673 6.567 15.9985Z" fill="white"/>
</g>
<defs>
<clipPath id="clip0_8305_395364">
<rect width="12" height="12" fill="white" transform="translate(3.5 7)"/>
</clipPath>
</defs>
</svg>
