<svg width="32" height="40" viewBox="0 0 32 40" fill="none" xmlns="http://www.w3.org/2000/svg">
<path d="M0 4C0 1.79086 1.79086 0 4 0H22.4L32 10V36C32 38.2091 30.2091 40 28 40H4C1.79086 40 0 38.2091 0 36V4Z" fill="#00ACA1"/>
<path d="M14.8333 15L13.3047 16.5286C13.0444 16.7889 13.0444 17.2111 13.3047 17.4714L14.8333 19M17.1667 15L18.6953 16.5286C18.9556 16.7889 18.9556 17.2111 18.6953 17.4714L17.1667 19M11.8333 22.5H20.1667C20.9031 22.5 21.5 21.9031 21.5 21.1667V12.8333C21.5 12.097 20.9031 11.5 20.1667 11.5H11.8333C11.097 11.5 10.5 12.097 10.5 12.8333V21.1667C10.5 21.9031 11.097 22.5 11.8333 22.5Z" stroke="white" stroke-width="1.2" stroke-linecap="round" stroke-linejoin="round"/>
<path opacity="0.5" d="M32 10H25.4C23.7431 10 22.4 8.65685 22.4 7V0L32 10Z" fill="white"/>
</svg>
