<svg width="32" height="40" viewBox="0 0 32 40" fill="none" xmlns="http://www.w3.org/2000/svg">
<path d="M0 4C0 1.79086 1.79086 0 4 0H22.4L32 10V36C32 38.2091 30.2091 40 28 40H4C1.79086 40 0 38.2091 0 36V4Z" fill="#D14423"/>
<path opacity="0.5" d="M32 10H25.4C23.7431 10 22.4 8.65685 22.4 7V0L32 10Z" fill="white"/>
<path d="M11.1666 11.5H20.8333M11.1666 21.8333C10.4303 21.8333 9.83331 21.2364 9.83331 20.5V14.8333C9.83331 14.097 10.4303 13.5 11.1666 13.5H20.8333C21.5697 13.5 22.1666 14.097 22.1666 14.8333V20.5C22.1666 21.2364 21.5697 21.8333 20.8333 21.8333H11.1666Z" stroke="white" stroke-width="1.2" stroke-linecap="round" stroke-linejoin="round"/>
</svg>
