<svg width="32" height="40" viewBox="0 0 32 40" fill="none" xmlns="http://www.w3.org/2000/svg">
<path d="M0 4C0 1.79086 1.79086 0 4 0H22.4L32 10V36C32 38.2091 30.2091 40 28 40H4C1.79086 40 0 38.2091 0 36V4Z" fill="#2727B0"/>
<path d="M20.8318 12.1679C22.0684 13.4045 22.8333 15.1128 22.8333 16.9998C22.8333 18.8867 22.0684 20.595 20.8318 21.8316M18.5927 14.4075C19.2562 15.071 19.6666 15.9876 19.6666 17.0002C19.6666 18.0127 19.2562 18.9294 18.5927 19.5929M10.5 14.1666H11.5699C11.8495 14.1666 12.1221 14.0787 12.349 13.9153L15.6385 11.5468C15.859 11.3881 16.1666 11.5456 16.1666 11.8173V22.1825C16.1666 22.4542 15.859 22.6118 15.6385 22.453L12.349 20.0845C12.1221 19.9211 11.8495 19.8332 11.5699 19.8332H10.5C9.76358 19.8332 9.16663 19.2363 9.16663 18.4999V15.4999C9.16663 14.7635 9.76358 14.1666 10.5 14.1666Z" stroke="white" stroke-width="1.2" stroke-linecap="round" stroke-linejoin="round"/>
<path opacity="0.5" d="M32 10H25.4C23.7431 10 22.4 8.65685 22.4 7V0L32 10Z" fill="white"/>
</svg>
