<svg width="40" height="48" viewBox="0 0 40 48" fill="none" xmlns="http://www.w3.org/2000/svg">
<path d="M0 4C0 1.79086 1.79086 0 4 0H28L40 12V44C40 46.2091 38.2091 48 36 48H4C1.79086 48 0 46.2091 0 44V4Z" fill="#00ACA1"/>
<path d="M18.6875 18.75L16.9678 20.4697C16.6749 20.7626 16.6749 21.2374 16.9678 21.5303L18.6875 23.25M21.3125 18.75L23.0322 20.4697C23.3251 20.7626 23.3251 21.2374 23.0322 21.5303L21.3125 23.25M15.3125 27.1875H24.6875C25.5159 27.1875 26.1875 26.5159 26.1875 25.6875V16.3125C26.1875 15.4841 25.5159 14.8125 24.6875 14.8125H15.3125C14.4841 14.8125 13.8125 15.4841 13.8125 16.3125V25.6875C13.8125 26.5159 14.4841 27.1875 15.3125 27.1875Z" stroke="white" stroke-width="1.5" stroke-linecap="round" stroke-linejoin="round"/>
<path opacity="0.5" d="M40 12L31 12C29.3431 12 28 10.6569 28 9V0L40 12Z" fill="white"/>
</svg>
