<svg width="32" height="40" viewBox="0 0 32 40" fill="none" xmlns="http://www.w3.org/2000/svg">
<path d="M0 4C0 1.79086 1.79086 0 4 0H22.4L32 10V36C32 38.2091 30.2091 40 28 40H4C1.79086 40 0 38.2091 0 36V4Z" fill="#0C864B"/>
<path d="M15 11.5V11H14V11.5H15ZM14 22.5V23H15V22.5H14ZM10.5 15H10V16H10.5V15ZM21.5 16H22V15H21.5V16ZM21 13.6333V20.3667H22V13.6333H21ZM19.3667 22H12.6333V23H19.3667V22ZM11 20.3667V13.6333H10V20.3667H11ZM12.6333 12H19.3667V11H12.6333V12ZM12.6333 22C12.2517 22 11.9956 21.9996 11.7983 21.9835C11.6069 21.9679 11.5154 21.9399 11.455 21.9092L11.001 22.8002C11.2259 22.9147 11.4636 22.9595 11.7169 22.9802C11.9643 23.0004 12.2682 23 12.6333 23V22ZM10 20.3667C10 20.7318 9.99961 21.0357 10.0198 21.2831C10.0405 21.5364 10.0853 21.7741 10.1998 21.999L11.0908 21.545C11.0601 21.4846 11.0321 21.3931 11.0165 21.2017C11.0004 21.0044 11 20.7483 11 20.3667H10ZM11.455 21.9092C11.2982 21.8293 11.1707 21.7018 11.0908 21.545L10.1998 21.999C10.3756 22.3439 10.6561 22.6244 11.001 22.8002L11.455 21.9092ZM21 20.3667C21 20.7483 20.9996 21.0044 20.9835 21.2017C20.9679 21.3931 20.9399 21.4846 20.9092 21.545L21.8002 21.999C21.9147 21.7741 21.9595 21.5364 21.9802 21.2831C22.0004 21.0357 22 20.7318 22 20.3667H21ZM19.3667 23C19.7318 23 20.0357 23.0004 20.2831 22.9802C20.5364 22.9595 20.7741 22.9147 20.999 22.8002L20.545 21.9092C20.4846 21.9399 20.3931 21.9679 20.2017 21.9835C20.0044 21.9996 19.7483 22 19.3667 22V23ZM20.9092 21.545C20.8293 21.7018 20.7018 21.8293 20.545 21.9092L20.999 22.8002C21.3439 22.6244 21.6244 22.3439 21.8002 21.999L20.9092 21.545ZM22 13.6333C22 13.2682 22.0004 12.9643 21.9802 12.7169C21.9595 12.4636 21.9147 12.2259 21.8002 12.001L20.9092 12.455C20.9399 12.5154 20.9679 12.6069 20.9835 12.7983C20.9996 12.9956 21 13.2517 21 13.6333H22ZM19.3667 12C19.7483 12 20.0044 12.0004 20.2017 12.0165C20.3931 12.0321 20.4846 12.0601 20.545 12.0908L20.999 11.1998C20.7741 11.0853 20.5364 11.0405 20.2831 11.0198C20.0357 10.9996 19.7318 11 19.3667 11V12ZM21.8002 12.001C21.6244 11.6561 21.3439 11.3756 20.999 11.1998L20.545 12.0908C20.7018 12.1707 20.8293 12.2982 20.9092 12.455L21.8002 12.001ZM11 13.6333C11 13.2517 11.0004 12.9956 11.0165 12.7983C11.0321 12.6069 11.0601 12.5154 11.0908 12.455L10.1998 12.001C10.0853 12.2259 10.0405 12.4636 10.0198 12.7169C9.99961 12.9643 10 13.2682 10 13.6333H11ZM12.6333 11C12.2682 11 11.9643 10.9996 11.7169 11.0198C11.4636 11.0405 11.2259 11.0853 11.001 11.1998L11.455 12.0908C11.5154 12.0601 11.6069 12.0321 11.7983 12.0165C11.9956 12.0004 12.2517 12 12.6333 12V11ZM11.0908 12.455C11.1707 12.2982 11.2982 12.1707 11.455 12.0908L11.001 11.1998C10.6561 11.3756 10.3756 11.6561 10.1998 12.001L11.0908 12.455ZM14 11.5V15.5H15V11.5H14ZM14 15.5V22.5H15V15.5H14ZM10.5 16H14.5V15H10.5V16ZM14.5 16H21.5V15H14.5V16Z" fill="white"/>
<path opacity="0.5" d="M32 10H25.4C23.7431 10 22.4 8.65685 22.4 7V0L32 10Z" fill="white"/>
</svg>
