<svg width="32" height="40" viewBox="0 0 32 40" fill="none" xmlns="http://www.w3.org/2000/svg">
<path d="M0 4C0 1.79086 1.79086 0 4 0H22.4L32 10V36C32 38.2091 30.2091 40 28 40H4C1.79086 40 0 38.2091 0 36V4Z" fill="#E59E34"/>
<path fill-rule="evenodd" clip-rule="evenodd" d="M9.41177 0H7.52942V2H9.41177V4H7.52942V6H9.41177V8H7.52942V10H9.41177V12H7.52942V14H9.41177V12H11.2941V10H9.41177V8H11.2941V6H9.41177V4H11.2941V2H9.41177V0ZM7.52942 17C7.52942 16.4477 7.9508 16 8.4706 16H10.3529C10.8727 16 11.2941 16.4477 11.2941 17V23C11.2941 23.5523 10.8727 24 10.3529 24H8.4706C7.9508 24 7.52942 23.5523 7.52942 23V17ZM8.4706 23V20H10.3529V23H8.4706Z" fill="white"/>
<path opacity="0.5" d="M32 10H25.4C23.7431 10 22.4 8.65685 22.4 7V0L32 10Z" fill="white"/>
</svg>
