<svg width="40" height="48" viewBox="0 0 40 48" fill="none" xmlns="http://www.w3.org/2000/svg">
<path d="M0 4C0 1.79086 1.79086 0 4 0H28L40 12V44C40 46.2091 38.2091 48 36 48H4C1.79086 48 0 46.2091 0 44V4Z" fill="#E71A01"/>
<path opacity="0.5" d="M40 12L31 12C29.3431 12 28 10.6569 28 9V0L40 12Z" fill="white"/>
<g clip-path="url(#clip0_1854_16789)">
<path d="M28.7225 23.475C28.19 22.9163 27.098 22.5975 25.5545 22.5975C24.7295 22.5975 23.7717 22.677 22.7337 22.863C22.0978 22.2515 21.5187 21.5835 21.0035 20.8673C20.6045 20.3348 20.258 19.7498 19.9385 19.1903C20.5512 17.3273 20.8437 15.81 20.8437 14.7188C20.8437 13.4948 20.3915 12.2168 19.0872 12.2168C18.6882 12.2168 18.2885 12.4568 18.0755 12.8025C17.4905 13.8405 17.7568 16.1025 18.7677 18.3383C18.3872 19.4816 17.9611 20.6093 17.4905 21.7185C17.0645 22.7303 16.5853 23.7683 16.0528 24.726C13.1255 25.8975 11.2355 27.255 11.0225 28.3186C10.943 28.7183 11.0758 29.091 11.369 29.3835C11.4755 29.4638 11.8483 29.7833 12.4865 29.7833C14.429 29.7833 16.4788 26.6423 17.5168 24.753C18.3155 24.4868 19.1143 24.2205 19.9122 24.0075C20.7542 23.7789 21.607 23.5924 22.4675 23.4488C24.5165 25.2848 26.3262 25.578 27.2315 25.578C28.349 25.578 28.7487 25.125 28.8815 24.753C29.1215 24.273 28.9617 23.7413 28.7225 23.475ZM27.6575 24.2475C27.5772 24.6465 27.1775 24.9128 26.6195 24.9128C26.4597 24.9128 26.327 24.8858 26.1665 24.8595C25.1555 24.6195 24.197 24.114 23.2392 23.3153C23.9777 23.1904 24.7253 23.1282 25.4742 23.1293C26.0337 23.1293 26.513 23.1555 26.8317 23.2358C27.2045 23.3153 27.7902 23.5553 27.6567 24.2468L27.6575 24.2475ZM22.0145 22.9965C21.2718 23.1357 20.535 23.3043 19.8057 23.502C19.1698 23.6674 18.5394 23.8537 17.9157 24.0608C18.2399 23.4329 18.5419 22.7937 18.821 22.1445C19.1405 21.399 19.406 20.6273 19.673 19.9088C19.9385 20.361 20.2317 20.814 20.5242 21.213C21.0025 21.8228 21.4995 22.4175 22.0145 22.9965ZM18.5285 13.095C18.5755 13.0008 18.6475 12.9212 18.7367 12.865C18.8258 12.8088 18.9286 12.7781 19.034 12.7763C19.5927 12.7763 19.6992 13.4145 19.6992 13.9208C19.6992 14.772 19.433 16.0763 18.9807 17.5665C18.2082 15.4905 18.1557 13.761 18.5285 13.095ZM15.6005 25.4978C14.243 27.7335 12.9388 29.1173 12.1408 29.1173C11.9968 29.1182 11.8565 29.0715 11.7418 28.9846C11.582 28.8248 11.5018 28.6388 11.555 28.4258C11.7148 27.627 13.2583 26.5095 15.6005 25.4978Z" fill="white"/>
</g>
<defs>
<clipPath id="clip0_1854_16789">
<rect width="18" height="18" fill="white" transform="translate(11 12)"/>
</clipPath>
</defs>
</svg>
