<svg width="32" height="40" viewBox="0 0 32 40" fill="none" xmlns="http://www.w3.org/2000/svg">
<path d="M0 4C0 1.79086 1.79086 0 4 0H22.4L32 10V36C32 38.2091 30.2091 40 28 40H4C1.79086 40 0 38.2091 0 36V4Z" fill="#E71A01"/>
<path opacity="0.5" d="M32 10H25.4C23.7431 10 22.4 8.65685 22.4 7V0L32 10Z" fill="white"/>
<g clip-path="url(#clip0_1854_16816)">
<path d="M23.7533 19.2C23.28 18.7033 22.3093 18.42 20.9373 18.42C20.204 18.42 19.3526 18.4906 18.43 18.656C17.8647 18.1124 17.3499 17.5186 16.892 16.882C16.5373 16.4086 16.2293 15.8886 15.9453 15.3913C16.49 13.7353 16.75 12.3866 16.75 11.4166C16.75 10.3286 16.348 9.19263 15.1886 9.19263C14.834 9.19263 14.4786 9.40596 14.2893 9.71329C13.7693 10.636 14.006 12.6466 14.9046 14.634C14.5664 15.6502 14.1877 16.6526 13.7693 17.6386C13.3906 18.538 12.9646 19.4606 12.4913 20.312C9.88931 21.3533 8.20931 22.56 8.01998 23.5053C7.94931 23.8606 8.06731 24.192 8.32798 24.452C8.42265 24.5233 8.75398 24.8073 9.32131 24.8073C11.048 24.8073 12.87 22.0153 13.7926 20.336C14.5026 20.0993 15.2126 19.8626 15.922 19.6733C16.6704 19.4701 17.4284 19.3043 18.1933 19.1766C20.0146 20.8086 21.6233 21.0693 22.428 21.0693C23.4213 21.0693 23.7766 20.6666 23.8946 20.336C24.108 19.9093 23.966 19.4366 23.7533 19.2ZM22.8066 19.8866C22.7353 20.2413 22.38 20.478 21.884 20.478C21.742 20.478 21.624 20.454 21.4813 20.4306C20.5826 20.2173 19.7306 19.768 18.8793 19.058C19.5357 18.947 20.2003 18.8917 20.866 18.8926C21.3633 18.8926 21.7893 18.916 22.0726 18.9873C22.404 19.058 22.9246 19.2713 22.806 19.886L22.8066 19.8866ZM17.7906 18.7746C17.1305 18.8983 16.4755 19.0482 15.8273 19.224C15.262 19.3709 14.7017 19.5366 14.1473 19.7206C14.4355 19.1625 14.7039 18.5944 14.952 18.0173C15.236 17.3546 15.472 16.6686 15.7093 16.03C15.9453 16.432 16.206 16.8346 16.466 17.1893C16.8911 17.7313 17.3329 18.26 17.7906 18.7746ZM14.692 9.97329C14.7338 9.88949 14.7978 9.81875 14.877 9.7688C14.9563 9.71884 15.0477 9.69157 15.1413 9.68996C15.638 9.68996 15.7326 10.2573 15.7326 10.7073C15.7326 11.464 15.496 12.6233 15.094 13.948C14.4073 12.1026 14.3606 10.5653 14.692 9.97329ZM12.0893 20.998C10.8826 22.9853 9.72331 24.2153 9.01398 24.2153C8.88599 24.2161 8.76132 24.1746 8.65931 24.0973C8.51731 23.9553 8.44598 23.79 8.49331 23.6006C8.63531 22.8906 10.0073 21.8973 12.0893 20.998Z" fill="white"/>
</g>
<defs>
<clipPath id="clip0_1854_16816">
<rect width="16" height="16" fill="white" transform="translate(8 9)"/>
</clipPath>
</defs>
</svg>
