<svg width="24" height="24" viewBox="0 0 24 24" fill="none" xmlns="http://www.w3.org/2000/svg">
<path d="M12 23.9922C5.47266 23.9922 0.046875 18.5664 0.046875 12.0391C0.046875 5.5 5.46094 0.0859375 11.9883 0.0859375C18.5273 0.0859375 23.9531 5.5 23.9531 12.0391C23.9531 18.5664 18.5391 23.9922 12 23.9922ZM4.99219 4.44531C5.58984 4.86719 6.31641 5.21875 7.14844 5.48828C7.66406 4.05859 8.35547 2.89844 9.16406 2.07812C7.59375 2.53516 6.16406 3.35547 4.99219 4.44531ZM14.8477 2.08984C15.6445 2.91016 16.3359 4.07031 16.8516 5.48828C17.6836 5.21875 18.4102 4.87891 19.0078 4.45703C17.8242 3.36719 16.4062 2.54688 14.8477 2.08984ZM8.66016 5.875C9.45703 6.01562 10.3125 6.10938 11.2383 6.14453V2.34766C10.2305 2.79297 9.31641 4.08203 8.66016 5.875ZM12.7734 2.34766V6.14453C13.6875 6.10938 14.543 6.01562 15.3398 5.875C14.6836 4.08203 13.7695 2.79297 12.7734 2.34766ZM1.66406 11.2656H6.09375C6.15234 9.69531 6.36328 8.23047 6.70312 6.91797C5.61328 6.56641 4.67578 6.10938 3.94922 5.55859C2.66016 7.15234 1.82812 9.13281 1.66406 11.2656ZM17.9062 11.2656H22.3359C22.1719 9.13281 21.3398 7.15234 20.0391 5.57031C19.3242 6.10938 18.3867 6.56641 17.2969 6.91797C17.6367 8.23047 17.8477 9.69531 17.9062 11.2656ZM12.7734 11.2656H16.3359C16.2773 9.85938 16.0898 8.52344 15.7852 7.31641C14.8359 7.51562 13.8281 7.64453 12.7734 7.67969V11.2656ZM7.66406 11.2656H11.2383V7.67969C10.1719 7.64453 9.16406 7.51562 8.21484 7.31641C7.92188 8.52344 7.72266 9.85938 7.66406 11.2656ZM1.66406 12.8008C1.82812 14.957 2.67188 16.9492 3.98438 18.5547C4.69922 18.0156 5.625 17.5586 6.70312 17.207C6.36328 15.8828 6.15234 14.4062 6.09375 12.8008H1.66406ZM7.66406 12.8008C7.71094 14.2305 7.92188 15.5898 8.23828 16.8086C9.17578 16.6211 10.1836 16.4922 11.2383 16.457V12.8008H7.66406ZM12.7734 16.457C13.8164 16.4922 14.8359 16.6211 15.7617 16.8086C16.0781 15.5898 16.2891 14.2305 16.3359 12.8008H12.7734V16.457ZM17.2969 17.207C18.375 17.5586 19.3008 18.0156 20.0156 18.5547C21.3281 16.9492 22.1719 14.957 22.3359 12.8008H17.9062C17.8477 14.4062 17.6367 15.8828 17.2969 17.207ZM12.7734 17.9922V21.7422C13.7578 21.2969 14.6602 20.0078 15.3164 18.2617C14.5312 18.1094 13.6758 18.0273 12.7734 17.9922ZM8.68359 18.2617C9.33984 20.0078 10.2422 21.2969 11.2383 21.7422V17.9922C10.3242 18.0273 9.46875 18.1094 8.68359 18.2617ZM16.8398 18.6367C16.3242 20.0312 15.6445 21.1797 14.8594 21.9883C16.4062 21.5312 17.8008 20.7227 18.9727 19.6562C18.375 19.2461 17.6602 18.9062 16.8398 18.6367ZM5.02734 19.6562C6.19922 20.7227 7.60547 21.5312 9.15234 21.9883C8.35547 21.1797 7.67578 20.0312 7.16016 18.6367C6.33984 18.9062 5.625 19.2461 5.02734 19.6562Z" fill="#00E2A1"/>
</svg>
