<svg width="107" height="107" viewBox="0 0 107 107" fill="none" xmlns="http://www.w3.org/2000/svg">
<path d="M36.737 28.5078C33.7384 28.5078 31.3076 30.9387 31.3076 33.9372V41.4716H56.7503C62.8034 41.4716 67.7548 46.1885 68.1294 52.1472C69.4789 51.8688 70.8767 51.7226 72.3087 51.7226C73.4595 51.7226 74.5882 51.8171 75.6876 51.9986V33.9372C75.6876 30.9386 73.2567 28.5078 70.2581 28.5078H36.737Z" fill="white"/>
<path d="M87.0708 57.9612C84.8839 55.7113 82.187 53.9596 79.1668 52.8927C78.9833 52.6599 78.8329 52.4249 78.7082 52.1724L78.6683 52.0898C78.1805 51.0561 78.1805 49.8706 78.1805 47.4994V43.2549C78.1805 40.8837 78.1805 39.6981 78.6683 38.6645L78.7082 38.5818C79.2145 37.5571 80.143 36.82 82.0002 35.3457L84.5745 33.302C86.4759 31.7926 89.2017 33.2167 89.2017 35.7196V55.0346C89.2017 56.517 88.2456 57.6209 87.0708 57.9612Z" fill="white"/>
<path fill-rule="evenodd" clip-rule="evenodd" d="M51.7237 72.3076C51.7237 64.6214 55.9363 57.9191 62.1786 54.3836V52.8712C62.1786 49.8727 59.7477 47.4418 56.7492 47.4418H23.228C20.2294 47.4418 17.7986 49.8727 17.7986 52.8713V75.7591C17.7986 78.7577 20.2294 81.1885 23.228 81.1885H53.7327C52.4449 78.4997 51.7237 75.4879 51.7237 72.3076ZM41.626 64.7956C43.731 64.7981 45.7541 65.6121 47.2743 67.0681C48.7945 68.5241 49.695 70.5101 49.7883 72.6131L49.7965 72.966V76.2342H30.1874V72.966C30.1899 70.8613 31.0036 68.8385 32.4593 67.3183C33.9149 65.7981 35.9006 64.8975 38.0032 64.8037L38.3578 64.7956H41.626ZM39.9919 53.3569C42.698 53.3569 44.8942 55.5548 44.8942 58.2592C44.8942 60.9652 42.698 63.1615 39.9919 63.1615C37.2859 63.1615 35.0896 60.9652 35.0896 58.2592C35.0896 55.5548 37.2859 53.3569 39.9919 53.3569Z" fill="white"/>
<path d="M89.2364 72.3598C89.2364 81.6799 81.681 89.2353 72.3609 89.2353C63.0408 89.2353 55.4854 81.6799 55.4854 72.3598C55.4854 63.0398 63.0408 55.4843 72.3609 55.4843C81.681 55.4843 89.2364 63.0398 89.2364 72.3598Z" fill="white"/>
<path d="M72.218 60.8125L60.71 72.3071L64.2541 75.8513L79.2776 60.824H72.2304L72.218 60.8125ZM72.2314 71.4182L66.0329 77.6033L72.2304 83.8008H79.2929L73.105 77.6052L79.2929 71.4172H72.2324L72.2314 71.4182Z" fill="black"/>
</svg>
