<svg width="13" height="15" viewBox="0 0 13 15" fill="none" xmlns="http://www.w3.org/2000/svg">
<path d="M6.50084 14.4336C6.38923 14.4336 6.22182 14.3987 6.04046 14.3011C2.14118 12.1038 0.794922 11.183 0.794922 8.67885V3.41936C0.794922 2.70089 1.10882 2.46373 1.68778 2.22656C2.50391 1.89872 5.11272 0.929129 5.92885 0.664062C6.11021 0.608259 6.30552 0.566406 6.50084 0.566406C6.69615 0.566406 6.89146 0.601283 7.0798 0.664062C7.88895 0.94308 10.4978 1.89174 11.3139 2.22656C11.8998 2.4707 12.2068 2.70089 12.2068 3.41936V8.67885C12.2068 11.183 10.9302 12.2224 6.96122 14.3011C6.78683 14.3917 6.61244 14.4336 6.50084 14.4336ZM5.71959 10.6459C5.95675 10.6459 6.15904 10.5343 6.30552 10.3111L9.58398 5.1423C9.67467 5.00279 9.75837 4.84235 9.75837 4.68192C9.75837 4.36105 9.47238 4.15179 9.17243 4.15179C8.9841 4.15179 8.80273 4.25642 8.6702 4.47266L5.69169 9.25781L4.27567 7.43025C4.10128 7.20006 3.94782 7.1303 3.75251 7.1303C3.43164 7.1303 3.1875 7.38839 3.1875 7.70926C3.1875 7.86272 3.25028 8.02316 3.35491 8.16267L5.10575 10.3111C5.28711 10.5552 5.48242 10.6459 5.71959 10.6459Z" fill="#00E2A1"/>
</svg>
